<svg xmlns="http://www.w3.org/2000/svg" width="512" height="512" viewBox="0 0 512 512"><path fill="#008cdb" d="M444.5 245.1L255.9 56.4c-9.1 10.8-27.3 36.3-27.9 68.6-.5 25.1 9.6 49.8 30.1 73.4l57.6 57.2-42.1 42.1c24 28.2 35.8 58.3 35.1 89.4-.1 6.3-.8 12.3-1.9 18.1l83.8-83.8-.4-.4 54.3-54.3c5.7-5.5 5.7-16 0-21.6zM254.4 314l-57.9-58.2 41.7-41.7c-24.2-28.3-36.1-58.5-35.4-89.8.1-5.9.7-11.5 1.7-17l-83.4 83.9L68 244.3c-6.4 6.4-6.4 16.1 0 22.5l187.2 188.8c8.9-10.5 27.7-36.3 28.4-69.2.5-24.7-9.3-49.1-29.2-72.4z"/></svg>